# xmcd
#
# Track frame offsets:
#	150
#	19178
#	30455
#	45341
#	62795
#	80882
#	98397
#	116101
#	133460
#	151377
#	166104
#	182481
#	198497
#	216219
#
# Disc length: 2916 seconds
#
# Revision: 2
# Processed by: cddbd v1.5.2PL0 Copyright (c) Steve Scherf et al.
# Submitted via: audiograbber 1.83.01
#
DISCID=ba0b620e
DTITLE=Various Artist - CDX 210
DYEAR=1999
DGENRE=Country
TTITLE0=Deana Carter - Angels working overtime
TTITLE1=John Michael Montgomery - Hello L.O.V.E
TTITLE2=Redmon and Vale - If I had a nickel (one thin dime)
TTITLE3=Lari White - John Wayne walking away
TTITLE4=Shania Twain - Man! I feel like a woman
TTITLE5=Brooks and Dunn - South of Santa Fe
TTITLE6=Chalee Tennison - Someone else's turn to cry
TTITLE7=Travis Tritt - Start the car
TTITLE8=Paul Brandt - That's the truth
TTITLE9=Kenny Rogers - The greatest
TTITLE10=Mark Chesnutt - This heartache never sleeps
TTITLE11=Rambler - Dreamin'
TTITLE12=Tareva Henderson - Looks like a job for a woman
TTITLE13=Terri Clark - PSA
EXTD=
EXTT0=
EXTT1=
EXTT2=
EXTT3=
EXTT4=
EXTT5=
EXTT6=
EXTT7=
EXTT8=
EXTT9=
EXTT10=
EXTT11=
EXTT12=
EXTT13=
PLAYORDER=
